{"accessors":[{"bufferView":2,"byteOffset":0,"componentType":5126,"count":1632,"max":[1,0.835527777671814,0.5859730243682861,1],"min":[0.4995052814483643,0.1390224546194077,0.03994716703891754,1],"name":"accessor_color_m0-PolyPaper21_-208382","type":"VEC4"},{"bufferView":0,"byteOffset":0,"componentType":5123,"count":2448,"max":[1631],"min":[0],"name":"accessor_indices_0_m0-PolyPaper21_-208382","type":"SCALAR"},{"bufferView":1,"byteOffset":19584,"componentType":5126,"count":1632,"max":[1,1,1],"min":[-1,-1,-1],"name":"accessor_normal_m0-PolyPaper21_-208382","type":"VEC3"},{"bufferView":1,"byteOffset":0,"componentType":5126,"count":1632,"max":[2.120103,2.170094,2.109993],"min":[-2.110062,-2.060099,-2.120097],"name":"accessor_position_m0-PolyPaper21_-208382","type":"VEC3"}],"asset":{"copyright":"Unknown","generator":"glTF 1-to-2 Upgrader for Google Blocks","version":"2.0"},"bufferViews":[{"buffer":0,"byteLength":4896,"byteOffset":0,"name":"ushortBufferView","target":34963},{"buffer":0,"byteLength":39168,"byteOffset":4896,"byteStride":12,"name":"vec3BufferView","target":34962},{"buffer":0,"byteLength":26112,"byteOffset":44064,"byteStride":16,"name":"vec4BufferView","target":34962}],"buffers":[{"byteLength":70176,"name":"model","uri":"data:application/octet-stream;base64,"}],"materials":[{"alphaMode":"OPAQUE","doubleSided":false,"name":"BlocksPaper","pbrMetallicRoughness":{"baseColorFactor":[1,1,1,1],"metallicFactor":0,"roughnessFactor":0.6}},{"alphaMode":"BLEND","doubleSided":false,"name":"BlocksGlass","pbrMetallicRoughness":{"baseColorFactor":[0.2,0.2,1,0.3],"metallicFactor":1,"roughnessFactor":0.4}},{"alphaMode":"OPAQUE","doubleSided":true,"name":"BlocksGem","pbrMetallicRoughness":{"baseColorFactor":[1,0.4,1,1],"metallicFactor":0,"roughnessFactor":0.1}}],"meshes":[{"name":"mesh_m0-PolyPaper21_-208382","primitives":[{"attributes":{"COLOR_0":0,"NORMAL":2,"POSITION":3},"indices":1,"material":0,"mode":4}]}],"nodes":[{"matrix":[1,0,0,0,0,1,0,0,0,0,1,0,0,0,0,1],"mesh":0,"name":"node_MeshObject-1058414592-PolyPaper21"}],"scene":0,"scenes":[{"extras":{},"name":"defaultScene","nodes":[0]}]}